<?xml version="1.0" encoding="utf-8"?>
<!-- Generator: Adobe Illustrator 16.0.0, SVG Export Plug-In . SVG Version: 6.00 Build 0)  -->
<!DOCTYPE svg PUBLIC "-//W3C//DTD SVG 1.1//EN" "http://www.w3.org/Graphics/SVG/1.1/DTD/svg11.dtd">
<svg version="1.1" id="Layer_1" xmlns="http://www.w3.org/2000/svg" xmlns:xlink="http://www.w3.org/1999/xlink" x="0px" y="0px"
	 width="972px" height="972px" viewBox="0 0 972 972" enable-background="new 0 0 972 972" xml:space="preserve">
<path id="header-logo" fill="#ffa500" stroke="#FFFFFF" stroke-width="20" stroke-miterlimit="10" d="M962,49.52C962,27.844,944.156,10,922.481,10
	H49.519C27.844,10,10,27.844,10,49.52v872.96C10,944.156,27.844,962,49.519,962h872.962C944.156,962,962,944.156,962,922.48V49.52z
	 M565,918h-92V732.273c0-33.018-16.323-51.59-49.341-51.59c-37.145,0-59.659,20.636-59.659,57.779V918h-92V421h92v227.354
	c18-33.705,50.287-52.278,90.871-52.278c63.971,0,110.129,46.776,110.129,130.007V918z M808.906,821.009
	c29.578,0,45.399-13.758,59.156-27.517l62.596,55.029c-28.89,32.331-63.282,52.967-121.752,52.967
	c-91.485,0-160.273-63.283-160.273-153.395c0-88.734,68.788-152.019,160.273-152.019c58.47,0,93.551,21.323,123.128,58.47
	L866,708.198c-11.006-17.885-33.706-30.954-57.094-30.954c-41.959,0-65.347,29.578-65.347,70.85
	C743.56,790.742,766.947,821.009,808.906,821.009z"/>
</svg>
