<?xml version="1.0" encoding="utf-8"?>
<!-- Generator: Adobe Illustrator 16.0.0, SVG Export Plug-In . SVG Version: 6.00 Build 0)  -->
<!DOCTYPE svg PUBLIC "-//W3C//DTD SVG 1.1//EN" "http://www.w3.org/Graphics/SVG/1.1/DTD/svg11.dtd">
<svg version="1.1" id="Layer_1" xmlns="http://www.w3.org/2000/svg" xmlns:xlink="http://www.w3.org/1999/xlink" x="0px" y="0px"
	 width="1000px" height="1000px" viewBox="0 0 1000 1000" enable-background="new 0 0 1000 1000" xml:space="preserve">
<path fill="none" stroke="#FFFFFF" stroke-width="18" stroke-miterlimit="10" d="M985,58c0-22.091-17.908-40-40-40H55
	c-22.091,0-40,17.909-40,40v890c0,22.092,17.909,40,40,40h890c22.092,0,40-17.908,40-40V58z M581,943h-95V763.749
	c0-33.65-16.092-52.579-49.742-52.579c-37.856,0-60.258,21.031-60.258,58.888V943h-95V437h95v241.221
	c18-34.352,51.323-53.28,92.686-53.28C533.883,624.94,581,672.612,581,757.439V943z M819.34,854.185
	c30.146,0,46.27-14.021,60.29-28.043l63.796,56.084c-29.444,32.95-64.496,53.981-124.086,53.981
	c-93.239,0-163.345-64.497-163.345-156.334c0-90.436,70.105-154.933,163.345-154.933c59.59,0,95.343,21.732,125.488,59.59
	l-67.301,54.682c-11.217-18.228-34.352-31.547-58.188-31.547c-42.764,0-66.6,30.145-66.6,72.208
	C752.74,823.338,776.576,854.185,819.34,854.185z"/>
<g>
</g>
<g>
</g>
<g>
</g>
<g>
</g>
<g>
</g>
<g>
</g>
<g>
</g>
<g>
</g>
<g>
</g>
<g>
</g>
<g>
</g>
<g>
</g>
<g>
</g>
<g>
</g>
<g>
</g>
</svg>
